
<svg width="32" height="32" viewBox="0 0 32 32" fill="none" xmlns="http://www.w3.org/2000/svg">
  <!-- Neural Network Side (Left) -->
  <!-- Nodes -->
  <circle cx="6" cy="8" r="1.5" fill="hsl(180, 100%, 70%)" />
  <circle cx="6" cy="16" r="1.5" fill="hsl(180, 100%, 70%)" />
  <circle cx="6" cy="24" r="1.5" fill="hsl(180, 100%, 70%)" />
  <circle cx="14" cy="12" r="1.5" fill="hsl(280, 80%, 70%)" />
  <circle cx="14" cy="20" r="1.5" fill="hsl(280, 80%, 70%)" />
  
  <!-- Neural Connections -->
  <line x1="6" y1="8" x2="14" y2="12" stroke="hsl(180, 100%, 70%)" stroke-width="0.8" opacity="0.7" />
  <line x1="6" y1="16" x2="14" y2="12" stroke="hsl(180, 100%, 70%)" stroke-width="0.8" opacity="0.7" />
  <line x1="6" y1="16" x2="14" y2="20" stroke="hsl(180, 100%, 70%)" stroke-width="0.8" opacity="0.7" />
  <line x1="6" y1="24" x2="14" y2="20" stroke="hsl(180, 100%, 70%)" stroke-width="0.8" opacity="0.7" />
  
  <!-- Blueprint Side (Right) -->
  <!-- Grid -->
  <line x1="18" y1="4" x2="18" y2="28" stroke="hsl(320, 80%, 75%)" stroke-width="0.5" opacity="0.5" />
  <line x1="22" y1="4" x2="22" y2="28" stroke="hsl(320, 80%, 75%)" stroke-width="0.5" opacity="0.5" />
  <line x1="26" y1="4" x2="26" y2="28" stroke="hsl(320, 80%, 75%)" stroke-width="0.5" opacity="0.5" />
  <line x1="16" y1="8" x2="28" y2="8" stroke="hsl(320, 80%, 75%)" stroke-width="0.5" opacity="0.5" />
  <line x1="16" y1="12" x2="28" y2="12" stroke="hsl(320, 80%, 75%)" stroke-width="0.5" opacity="0.5" />
  <line x1="16" y1="16" x2="28" y2="16" stroke="hsl(320, 80%, 75%)" stroke-width="0.5" opacity="0.5" />
  <line x1="16" y1="20" x2="28" y2="20" stroke="hsl(320, 80%, 75%)" stroke-width="0.5" opacity="0.5" />
  <line x1="16" y1="24" x2="28" y2="24" stroke="hsl(320, 80%, 75%)" stroke-width="0.5" opacity="0.5" />
  
  <!-- Blueprint Elements -->
  <rect x="19" y="9" width="6" height="4" fill="none" stroke="hsl(320, 80%, 75%)" stroke-width="0.8" />
  <rect x="20" y="17" width="4" height="4" fill="none" stroke="hsl(320, 80%, 75%)" stroke-width="0.8" />
  
  <!-- Central Dividing Line -->
  <line x1="16" y1="4" x2="16" y2="28" stroke="hsl(230, 80%, 65%)" stroke-width="1" opacity="0.8" />
</svg>
